<?xml version="1.0" standalone="no"?>
<!DOCTYPE svg PUBLIC "-//W3C//DTD SVG 20010904//EN"
 "http://www.w3.org/TR/2001/REC-SVG-20010904/DTD/svg10.dtd">
<svg version="1.0" xmlns="http://www.w3.org/2000/svg"
 width="360.000000pt" height="360.000000pt" viewBox="0 0 360.000000 360.000000"
 preserveAspectRatio="xMidYMid meet">
<metadata>
Created by potrace 1.16, written by Peter Selinger 2001-2019
</metadata>
<g transform="translate(0.000000,360.000000) scale(0.100000,-0.100000)"
fill="#000000" stroke="none">
<path d="M1890 3304 c-6 -14 -10 -27 -10 -30 0 -2 335 -4 745 -4 410 0 745 2
745 5 0 2 -5 16 -12 30 l-11 25 -724 0 -723 0 -10 -26z"/>
<path d="M1336 2749 c-21 -11 -35 -16 -31 -10 11 19 -3 12 -40 -20 -19 -17
-35 -37 -35 -45 0 -7 10 -39 21 -70 17 -45 23 -54 31 -40 6 10 22 16 46 16 24
0 32 3 24 9 -7 4 -25 6 -38 3 -24 -4 -25 -2 -22 29 3 33 5 34 50 37 29 2 59
-3 77 -13 28 -14 31 -14 31 1 0 12 6 15 25 10 14 -4 25 -2 25 4 0 5 -6 10 -12
10 -7 1 4 10 25 21 20 11 37 26 37 34 0 17 -49 28 -105 23 -28 -2 -39 1 -37
10 3 18 -27 14 -72 -9z"/>
<path d="M1320 2272 c0 -5 9 -17 21 -28 19 -17 20 -28 18 -234 -1 -158 2 -222
12 -243 15 -33 28 -31 51 9 15 28 15 39 -13 229 -35 232 -35 234 -24 258 7 17
6 18 -15 5 -18 -10 -24 -10 -27 0 -5 14 -23 17 -23 4z"/>
<path d="M2757 2083 c-4 -3 -7 -14 -7 -24 0 -13 -7 -17 -27 -16 -26 2 -28 -1
-29 -41 -1 -24 -4 -45 -6 -47 -2 -3 -174 -5 -381 -5 -208 -1 -384 -3 -392 -6
-48 -19 25 -23 383 -24 339 0 399 -2 408 -15 13 -17 54 -21 54 -5 0 6 -9 10
-20 10 -15 0 -20 7 -20 26 l0 27 78 -6 c116 -8 128 -16 108 -77 -7 -22 -19
-36 -31 -38 -11 -2 -24 -7 -28 -12 -5 -4 3 -5 17 -3 32 7 33 -8 2 -43 -22 -26
-26 -27 -62 -17 -53 16 -94 7 -94 -21 1 -71 44 -92 125 -61 37 14 46 22 55 53
5 20 10 51 10 68 0 21 10 41 30 62 17 18 30 36 30 42 0 6 64 10 176 10 136 0
175 3 172 13 -4 9 -50 13 -176 15 -171 2 -172 3 -169 25 1 12 -3 21 -10 20 -6
-2 -17 13 -23 32 -12 35 -24 44 -35 25 -4 -6 -15 0 -27 15 -22 28 -38 32 -38
10 0 -19 -9 -19 -34 0 -22 17 -29 18 -39 8z"/>
<path d="M640 2029 c-74 -13 -95 -29 -117 -91 -25 -74 -26 -237 0 -265 22 -26
22 -30 -8 -37 -20 -5 -28 -18 -44 -74 -11 -37 -22 -91 -26 -119 -6 -58 -7 -58
66 -54 33 2 36 0 47 -37 7 -22 12 -47 12 -56 0 -25 17 -19 75 27 97 77 117 92
136 101 10 5 21 17 24 28 4 10 20 25 36 33 l29 16 -30 59 c-16 33 -39 64 -50
70 -30 16 -24 30 13 30 54 0 63 11 43 59 -9 23 -16 55 -16 71 0 45 -12 36 -43
-30 -25 -54 -31 -60 -57 -60 -38 0 -38 -9 1 -42 25 -23 28 -30 19 -47 -16 -30
-52 -36 -91 -15 -33 18 -33 18 -9 22 50 6 51 10 5 78 -25 37 -45 72 -45 79 0
6 -11 17 -25 23 -20 9 -25 19 -25 47 l0 36 31 -16 c17 -9 33 -14 37 -11 3 3 2
6 -1 6 -15 0 32 38 59 49 l29 11 -27 -5 c-30 -6 -35 4 -18 36 16 29 81 26 117
-6 l28 -24 -25 -1 c-25 -1 -25 -1 -2 -10 16 -7 22 -18 22 -40 0 -16 5 -30 10
-30 13 0 11 65 -3 114 -21 68 -77 91 -177 75z"/>
<path d="M1170 1609 c0 -24 -5 -73 -10 -108 -5 -35 -10 -112 -11 -170 l-2
-106 52 -3 c34 -2 51 1 51 9 0 18 31 271 36 297 4 21 8 22 130 22 89 0 125 3
122 11 -5 16 -98 51 -116 44 -9 -3 -12 0 -9 8 4 11 -14 16 -81 21 -47 3 -103
9 -124 12 l-38 7 0 -44z"/>
<path d="M749 1334 c-39 -41 -144 -126 -175 -142 -18 -9 -27 -8 -47 8 -14 11
-28 20 -31 20 -18 0 5 -181 30 -241 25 -59 63 -71 257 -82 l169 -11 -6 -35
c-9 -61 -7 -274 3 -316 6 -22 11 -43 11 -47 0 -5 -36 -8 -80 -8 l-80 0 0 90 0
91 -62 -3 -61 -3 2 -87 2 -88 -58 -1 c-32 -1 -73 -1 -91 0 -27 0 -36 -5 -53
-33 -11 -19 -31 -37 -44 -40 -41 -11 -44 -69 -3 -82 31 -9 59 22 47 53 -7 19
-5 31 12 54 18 26 26 29 75 29 30 0 54 -3 54 -6 0 -16 -23 -44 -35 -44 -8 0
-22 -12 -32 -26 -16 -26 -16 -27 5 -44 39 -32 84 -2 61 41 -8 15 -5 26 11 49
21 29 23 30 110 30 87 0 89 -1 110 -30 16 -23 19 -34 11 -49 -14 -25 -5 -48
21 -54 27 -7 45 1 51 23 4 17 7 17 61 2 56 -15 56 -16 56 -54 0 -34 3 -38 26
-38 l25 0 -7 70 c-6 64 -5 70 12 70 11 0 32 -11 48 -25 32 -28 76 -34 76 -11
0 8 5 18 11 22 7 4 10 -13 7 -57 -3 -62 -2 -64 22 -64 24 0 25 2 27 75 0 41 4
111 8 155 3 44 8 127 11 185 8 186 22 372 28 378 13 13 17 -12 19 -137 1 -72
4 -131 7 -132 3 0 15 -2 28 -5 14 -2 21 0 17 6 -3 5 0 7 8 4 11 -4 16 11 21
68 4 40 12 100 19 133 l12 60 385 0 385 0 17 -305 c9 -168 17 -347 17 -397 1
-92 1 -93 26 -93 14 0 25 5 25 10 0 6 8 10 19 10 10 0 35 7 54 15 54 22 77 20
74 -7 -2 -18 3 -23 23 -23 21 0 26 5 28 32 l3 31 25 -23 c13 -12 24 -27 24
-33 0 -7 11 -19 24 -28 22 -13 29 -14 53 -2 24 11 28 20 28 53 1 22 -5 48 -13
57 -12 15 -12 19 2 33 9 9 16 23 16 31 0 11 16 14 70 14 61 0 71 -3 84 -23 8
-12 14 -39 13 -60 -2 -57 35 -75 74 -36 18 18 19 23 6 42 -8 12 -23 24 -33 26
-21 4 -45 32 -38 43 3 5 27 8 54 8 61 0 92 -31 83 -84 -4 -28 -1 -36 16 -46
29 -15 58 -4 63 24 6 32 -8 56 -33 56 -12 0 -28 14 -40 35 l-21 35 -89 0 -89
0 0 84 c0 91 -3 96 -62 96 -30 0 -30 1 -24 38 3 20 6 58 6 85 l0 47 105 0 c96
0 105 2 105 19 0 16 -7 18 -62 14 -34 -3 -81 -2 -105 2 -38 5 -44 10 -41 28 2
17 16 24 71 38 98 25 128 49 151 125 6 20 3 21 -119 21 -101 1 -131 4 -152 18
-17 12 -37 15 -60 12 -34 -6 -34 -6 -31 31 3 36 4 37 41 34 34 -3 37 -2 37 23
l0 27 -120 -4 c-109 -3 -120 -1 -120 15 0 9 6 17 14 17 17 0 25 29 15 55 -7
17 -8 16 -8 -7 -1 -16 -5 -28 -10 -28 -5 0 -9 12 -9 28 1 63 2 62 -57 62 l-55
0 -1 -42 c-1 -24 0 -55 1 -70 1 -27 0 -28 -49 -28 -48 0 -51 -2 -51 -25 l0
-25 -625 0 -625 0 5 -41 5 -40 -43 6 c-108 16 -111 18 -134 65 -29 60 -36 114
-23 179 5 30 9 56 7 57 -2 2 -19 -12 -38 -32z m1871 -454 c0 -33 -3 -40 -20
-40 -13 0 -20 -7 -20 -20 0 -13 7 -20 20 -20 19 0 20 -7 20 -175 l0 -175 -45
0 -46 0 6 63 c6 67 25 360 25 382 0 12 9 16 53 24 4 0 7 -17 7 -39z m-275
-137 c3 -27 20 -104 36 -172 16 -68 29 -125 29 -127 0 -2 -20 -4 -44 -4 l-44
0 -6 108 c-3 59 -8 137 -10 175 -4 60 -3 67 13 67 15 0 20 -11 26 -47z"/>
<path d="M1831 1348 c-1 -14 -11 -18 -43 -20 -68 -2 -71 -3 -75 -15 -2 -6 1
-14 6 -18 6 -3 11 -28 11 -56 l0 -49 64 0 64 0 4 48 c3 26 8 55 12 65 6 12 4
17 -8 17 -9 0 -21 10 -26 23 -7 17 -9 18 -9 5z"/>
</g>
</svg>
