<?xml version="1.0" standalone="no"?>
<!DOCTYPE svg PUBLIC "-//W3C//DTD SVG 20010904//EN"
 "http://www.w3.org/TR/2001/REC-SVG-20010904/DTD/svg10.dtd">
<svg version="1.0" xmlns="http://www.w3.org/2000/svg"
 width="1080.000000pt" height="1080.000000pt" viewBox="0 0 1080.000000 1080.000000"
 preserveAspectRatio="xMidYMid meet">
<metadata>
Created by potrace 1.16, written by Peter Selinger 2001-2019
</metadata>
<g transform="translate(0.000000,1080.000000) scale(0.100000,-0.100000)"
fill="#000000" stroke="none">
<path d="M5680 8056 c-97 -26 -189 -70 -269 -129 -67 -49 -251 -232 -251 -249
0 -7 15 2 33 19 60 56 141 111 222 150 78 37 82 38 195 38 103 0 121 -3 170
-26 130 -61 215 -185 283 -409 30 -99 42 -157 73 -357 4 -30 8 -33 40 -33 41
0 346 -17 452 -25 l72 -6 0 46 c0 130 -45 301 -120 458 -64 133 -111 205 -195
295 -203 218 -448 297 -705 228z"/>
<path d="M6124 6903 c2 -10 14 -99 27 -198 12 -99 23 -181 23 -182 3 -4 268
-54 270 -51 2 2 -5 93 -15 203 -10 110 -18 205 -18 211 -1 6 -50 15 -123 22
-164 16 -170 16 -164 -5z"/>
<path d="M6510 6583 c0 -41 32 -277 39 -285 3 -3 50 -10 104 -15 94 -8 97 -8
97 12 0 51 -23 291 -29 296 -3 4 -52 9 -108 12 l-103 5 0 -25z"/>
<path d="M6337 6323 c-4 -5 2 -63 11 -129 l17 -119 74 -7 c41 -4 77 -6 79 -3
3 2 -1 61 -8 130 l-13 125 -56 0 c-31 0 -66 3 -77 6 -12 3 -24 2 -27 -3z"/>
<path d="M6580 5998 c0 -13 3 -53 6 -90 l7 -68 36 -5 c20 -4 48 -9 63 -11 l28
-6 -7 79 c-9 119 -12 123 -78 123 -50 0 -55 -2 -55 -22z"/>
<path d="M4770 4210 l0 -570 80 0 80 0 20 40 21 41 28 -20 c85 -61 228 -83
304 -46 89 42 135 147 144 325 12 224 -33 366 -131 417 -50 26 -171 27 -251 3
-38 -11 -76 -22 -83 -23 -10 -2 -13 41 -15 198 l-2 200 -97 3 -98 3 0 -571z
m455 5 c16 -32 21 -65 23 -161 4 -128 -6 -187 -37 -226 -17 -20 -27 -23 -85
-21 -38 0 -85 9 -111 20 l-45 18 0 197 0 196 38 10 c20 6 73 10 117 9 l80 -2
20 -40z"/>
<path d="M7355 4769 c-106 -26 -143 -87 -153 -252 -6 -101 -9 -112 -27 -115
-11 -2 -37 -8 -57 -13 l-38 -10 0 -59 0 -60 60 0 60 0 0 -310 0 -310 100 0
100 0 2 308 3 307 88 3 87 3 0 74 0 75 -91 0 -91 0 4 95 c5 120 9 124 131 125
l88 0 -3 57 -3 57 -43 13 c-61 17 -171 24 -217 12z"/>
<path d="M2680 4687 c0 -7 6 -33 14 -58 14 -43 66 -208 125 -394 16 -49 50
-157 76 -240 25 -82 61 -195 79 -250 l33 -100 111 -3 112 -3 11 28 c10 27 96
326 106 371 3 12 9 24 13 27 5 3 39 -91 78 -208 l69 -212 117 -3 c64 -1 116 0
116 3 0 3 25 97 56 208 31 111 67 240 79 287 13 47 44 162 70 255 26 94 55
200 65 238 l18 67 -104 0 c-57 0 -104 -1 -104 -2 0 -5 -150 -614 -171 -696
-12 -46 -25 -79 -29 -75 -4 4 -44 119 -88 254 l-81 247 34 123 c19 68 35 130
35 137 0 9 -27 12 -103 12 l-103 0 -84 -347 c-46 -192 -89 -367 -94 -390 -6
-24 -13 -43 -16 -43 -3 0 -43 127 -89 283 -46 155 -98 329 -116 387 l-32 105
-101 3 c-81 2 -102 0 -102 -11z"/>
<path d="M7815 4573 c-4 -27 -12 -75 -19 -107 l-11 -59 -52 -16 c-68 -21 -75
-29 -71 -82 l3 -44 63 -3 62 -3 0 -207 c0 -275 17 -337 101 -387 27 -16 57
-21 147 -24 l113 -3 -3 62 -3 61 -54 19 c-97 32 -96 29 -99 270 l-3 210 85 0
86 0 0 75 0 75 -85 0 -85 0 0 105 0 105 -84 0 -85 0 -6 -47z"/>
<path d="M4185 4401 c-145 -36 -192 -146 -183 -425 7 -198 36 -269 128 -316
41 -21 52 -22 234 -17 106 3 210 10 234 17 l42 12 0 69 0 69 -42 -7 c-24 -4
-106 -8 -184 -8 -184 0 -198 7 -214 103 l-7 42 136 0 c199 1 271 24 307 98 19
40 21 169 4 233 -16 58 -73 112 -133 128 -50 12 -273 13 -322 2z m248 -159
c22 -24 33 -103 18 -130 -10 -19 -21 -21 -131 -24 l-120 -3 0 60 c1 93 27 114
141 115 61 0 79 -4 92 -18z"/>
<path d="M5654 4396 c-17 -8 -44 -31 -60 -52 -27 -35 -29 -44 -32 -147 -7
-215 40 -257 288 -257 85 0 130 -4 138 -12 16 -16 16 -100 0 -116 -9 -9 -68
-12 -205 -12 l-193 0 0 -64 0 -64 53 -13 c35 -9 117 -14 252 -14 195 0 201 1
234 24 52 37 71 90 71 201 0 71 -5 105 -19 135 -39 85 -87 104 -266 105 -71 0
-136 4 -143 8 -18 12 -26 72 -13 105 l11 27 195 0 195 0 0 65 0 64 -37 12
c-21 6 -127 13 -238 15 -158 4 -207 1 -231 -10z"/>
<path d="M6515 4401 c-92 -24 -147 -73 -180 -163 -29 -76 -29 -349 -1 -423 28
-74 59 -110 123 -142 56 -27 64 -28 203 -28 126 0 151 3 190 21 109 51 141
122 148 327 7 225 -31 327 -140 384 -49 25 -64 27 -183 29 -71 2 -143 0 -160
-5z m199 -151 c63 -14 75 -34 88 -144 12 -105 0 -236 -24 -276 -17 -28 -81
-43 -146 -36 -110 13 -125 43 -120 245 2 119 6 152 21 174 27 41 100 56 181
37z"/>
<path d="M2241 2923 c97 -178 135 -238 149 -238 8 0 28 24 45 52 16 29 32 53
35 53 3 0 14 -18 24 -40 22 -45 50 -75 64 -66 10 6 172 298 172 310 0 3 -10 6
-23 6 -19 0 -34 -20 -87 -120 -36 -66 -68 -119 -72 -117 -4 1 -34 54 -65 117
-51 101 -61 115 -85 118 -16 2 -28 1 -28 -2 0 -3 17 -40 37 -81 31 -63 36 -78
25 -93 -6 -9 -17 -28 -22 -41 -14 -32 -21 -25 -90 106 -53 100 -60 108 -89
111 l-32 3 42 -78z"/>
<path d="M2780 2840 l0 -160 145 0 145 0 0 30 0 30 -115 0 -115 0 0 100 0 100
115 0 115 0 0 30 0 30 -145 0 -145 0 0 -160z"/>
<path d="M3240 2840 l0 -160 140 0 c138 0 140 0 170 28 43 39 49 83 16 117
l-26 26 21 28 c17 23 19 35 12 58 -16 49 -60 63 -205 63 l-128 0 0 -160z m275
65 l0 -30 -87 -3 c-86 -3 -88 -3 -88 -27 0 -24 2 -24 86 -27 70 -2 89 -6 98
-20 8 -13 8 -23 0 -35 -9 -15 -29 -18 -118 -21 l-106 -3 0 101 0 101 108 -3
107 -3 0 -30z"/>
<path d="M3640 2840 l0 -160 145 0 145 0 0 30 0 30 -115 0 -115 0 0 100 0 100
115 0 115 0 0 30 0 30 -145 0 -145 0 0 -160z"/>
<path d="M3970 2840 l0 -160 135 0 135 0 0 30 0 30 -105 0 -105 0 0 130 0 130
-30 0 -30 0 0 -160z"/>
<path d="M4280 2840 l0 -160 30 0 30 0 0 160 0 160 -30 0 -30 0 0 -160z"/>
<path d="M4400 2840 l0 -160 145 0 145 0 0 30 0 30 -115 0 -115 0 0 100 0 100
115 0 115 0 0 30 0 30 -145 0 -145 0 0 -160z"/>
<path d="M4725 2973 c11 -15 50 -80 89 -143 38 -63 76 -123 84 -132 26 -31 13
-48 159 190 34 57 63 106 63 108 0 3 -12 4 -27 2 -23 -2 -38 -22 -97 -121 -39
-64 -74 -116 -78 -115 -4 2 -38 55 -76 118 -64 106 -73 115 -103 118 l-32 4
18 -29z"/>
<path d="M5170 2840 l0 -160 145 0 145 0 0 30 0 30 -115 0 -115 0 0 100 0 100
115 0 115 0 0 30 0 30 -145 0 -145 0 0 -160z"/>
<path d="M5630 2840 l0 -160 30 0 30 0 0 160 0 160 -30 0 -30 0 0 -160z"/>
<path d="M5762 2988 c-8 -8 -12 -58 -12 -160 l0 -148 25 0 25 0 0 117 0 117
120 -118 c152 -151 150 -151 150 55 l0 149 -25 0 -25 0 0 -117 0 -118 -118
118 c-64 64 -120 117 -123 117 -3 0 -10 -5 -17 -12z"/>
<path d="M6355 2989 c-41 -16 -64 -37 -87 -83 -38 -73 -1 -172 76 -207 47 -21
136 -25 185 -8 24 9 35 9 44 0 6 -6 25 -11 42 -10 l30 0 -27 21 -26 20 25 47
c40 75 22 151 -50 205 -31 23 -164 32 -212 15z m186 -62 c37 -28 51 -96 29
-138 -13 -24 -25 -24 -57 1 -14 11 -39 20 -56 20 l-31 0 42 -31 c23 -17 42
-33 42 -35 0 -2 -32 -4 -71 -4 -65 0 -73 2 -100 29 -43 43 -38 121 10 158 10
7 48 12 96 12 48 0 86 -5 96 -12z"/>
<path d="M6681 2882 c5 -138 16 -163 87 -194 51 -23 137 -21 188 3 57 29 69
59 73 190 l3 119 -31 0 -31 0 0 -110 c0 -104 -1 -112 -25 -135 -21 -21 -33
-25 -88 -25 -50 0 -70 5 -91 21 -25 20 -26 23 -26 135 l0 114 -31 0 -31 0 3
-118z"/>
<path d="M7218 2983 c-8 -10 -48 -72 -88 -138 -40 -66 -80 -130 -88 -142 -14
-22 -13 -23 15 -23 26 0 35 10 102 125 40 69 74 125 76 125 1 0 19 -27 38 -60
l36 -60 -49 0 c-39 0 -52 -4 -60 -19 -5 -11 -10 -22 -10 -25 0 -3 33 -6 74 -6
l75 0 22 -40 c18 -32 28 -40 51 -40 15 0 28 2 28 4 0 4 -56 97 -159 264 -18
28 -36 52 -40 52 -4 0 -15 -8 -23 -17z"/>
<path d="M7490 2840 l0 -160 135 0 135 0 0 30 0 30 -105 0 -105 0 0 130 0 130
-30 0 -30 0 0 -160z"/>
<path d="M7800 2840 l0 -160 30 0 30 0 0 160 0 160 -30 0 -30 0 0 -160z"/>
<path d="M7900 2970 l0 -30 60 0 60 0 0 -130 0 -130 30 0 30 0 0 130 0 130 60
0 60 0 0 30 0 30 -150 0 -150 0 0 -30z"/>
<path d="M8231 2983 c8 -10 44 -53 81 -96 l68 -77 0 -65 0 -65 30 0 30 0 0 63
c1 67 -1 65 80 157 85 98 87 100 52 100 -24 0 -41 -13 -92 -72 -34 -40 -65
-74 -69 -75 -3 0 -33 31 -67 70 -50 59 -66 73 -94 75 -31 3 -33 2 -19 -15z"/>
<path d="M3370 2310 l0 -160 94 0 c126 0 153 7 196 50 43 43 57 101 39 159
-27 83 -82 110 -226 111 l-103 0 0 -160z m233 89 c52 -24 63 -108 21 -158 -25
-30 -28 -31 -110 -31 l-84 0 0 100 0 100 75 0 c41 0 85 -5 98 -11z"/>
<path d="M3760 2310 l0 -160 145 0 145 0 0 30 0 30 -115 0 -115 0 0 100 0 100
115 0 115 0 0 30 0 30 -145 0 -145 0 0 -160z"/>
<path d="M4082 2448 c8 -13 48 -77 88 -143 76 -124 98 -155 111 -155 7 0 199
305 199 316 0 3 -12 4 -27 2 -23 -2 -38 -22 -98 -120 -38 -65 -73 -117 -77
-115 -4 1 -38 54 -76 117 -63 107 -70 115 -102 118 -33 3 -33 3 -18 -20z"/>
<path d="M4530 2310 l0 -160 145 0 145 0 0 30 0 30 -114 0 -115 0 -3 100 -3
100 118 0 117 0 0 30 0 30 -145 0 -145 0 0 -160z"/>
<path d="M4860 2310 l0 -160 135 0 135 0 0 30 0 30 -105 0 -105 0 0 130 0 130
-30 0 -30 0 0 -160z"/>
<path d="M5250 2451 c-45 -24 -65 -47 -79 -93 -24 -73 13 -159 82 -192 36 -16
119 -21 177 -9 49 9 105 70 114 123 13 81 -33 160 -103 180 -58 16 -152 11
-191 -9z m193 -52 c31 -14 47 -48 47 -99 0 -30 -6 -43 -31 -64 -27 -23 -39
-26 -106 -26 -69 0 -77 2 -104 29 -23 24 -29 38 -29 73 1 73 33 97 132 98 37
0 78 -5 91 -11z"/>
<path d="M5600 2311 l0 -161 30 0 30 0 0 130 0 130 96 0 c114 0 134 -8 134
-55 0 -53 -20 -65 -111 -65 -78 0 -79 0 -79 -25 0 -24 2 -25 70 -25 110 0 155
25 175 98 9 33 -12 88 -43 109 -22 15 -52 19 -164 21 l-138 4 0 -161z"/>
<path d="M6042 2453 c-5 -10 -26 -78 -47 -151 -26 -94 -34 -137 -27 -144 22
-22 38 3 65 106 16 58 32 104 36 101 4 -2 27 -48 51 -102 40 -92 53 -112 73
-113 8 0 38 60 86 174 12 27 24 47 27 44 3 -3 18 -52 33 -109 15 -56 32 -104
37 -106 5 -1 15 1 23 6 12 8 9 31 -23 148 -37 135 -54 172 -74 159 -5 -3 -32
-55 -58 -116 -27 -60 -53 -109 -58 -107 -5 2 -29 48 -53 102 -59 131 -72 146
-91 108z"/>
<path d="M6460 2310 l0 -160 145 0 145 0 0 30 0 30 -115 0 -115 0 0 100 0 100
115 0 115 0 0 30 0 30 -145 0 -145 0 0 -160z"/>
<path d="M6802 2458 c-8 -8 -12 -58 -12 -160 l0 -148 25 0 25 0 0 117 0 118
119 -119 c152 -152 151 -153 151 55 l0 149 -25 0 -25 0 0 -117 0 -118 -118
118 c-64 64 -120 117 -123 117 -3 0 -10 -5 -17 -12z"/>
<path d="M7150 2440 l0 -30 60 0 60 0 0 -130 0 -130 30 0 30 0 0 130 0 130 60
0 60 0 0 30 0 30 -150 0 -150 0 0 -30z"/>
</g>
</svg>
